<?xml version="1.0" encoding="utf-8"?>
<!-- Generator: Adobe Illustrator 22.0.1, SVG Export Plug-In . SVG Version: 6.00 Build 0)  -->
<svg version="1.1" id="Capa_2" xmlns="http://www.w3.org/2000/svg" xmlns:xlink="http://www.w3.org/1999/xlink" x="0px" y="0px"
	 viewBox="0 0 3207.8 631.1" style="enable-background:new 0 0 3207.8 631.1;" xml:space="preserve">
<g id="Capa_1">
	<g>
		<g>
			<path d="M1714.3,184c14,0,25.7,1,34.9,3.1l-7.8,97.8c-8.4-2.3-18.5-3.4-30.5-3.4c-33,0-58.7,8.5-77.2,25.6
				c-18.4,17.1-27.6,41-27.6,71.8v194.5h-103.4V191.2h78.3l15.3,64.3h5.1c11.8-21.4,27.6-38.7,47.7-51.8
				C1669,190.6,1690.8,184,1714.3,184z"/>
			<path d="M1989.7,580.2c-61,0-108.8-17-143.1-50.9c-34.4-34-51.6-82-51.6-144.2c0-64,15.9-113.5,47.7-148.5
				c31.8-35,75.7-52.5,131.8-52.5c53.6,0,95.3,15.4,125.2,46.1s44.8,73.3,44.8,127.5v50.6h-244.5c1.1,29.6,9.8,52.8,26.1,69.4
				c16.3,16.6,39.1,25,68.5,25c22.8,0,44.4-2.4,64.8-7.2c20.3-4.8,41.6-12.4,63.8-22.9v80.7c-18.1,9.1-37.4,15.9-58,20.3
				C2044.4,578,2019.3,580.2,1989.7,580.2z M1975.1,258.2c-21.9,0-39.1,7-51.6,21c-12.4,14-19.6,33.9-21.4,59.6h145.2
				c-0.5-25.7-7.1-45.6-20-59.6C2014.5,265.2,1997.1,258.2,1975.1,258.2z"/>
			<path d="M2382.5,580.2c-118,0-177-65.3-177-195.8c0-64.9,16.1-114.6,48.2-148.9c32.1-34.3,78.1-51.4,138-51.4
				c43.9,0,83.2,8.7,118,26l-30.5,80.7c-16.3-6.6-31.4-12-45.4-16.2c-14-4.2-28-6.3-42.1-6.3c-53.8,0-80.7,38.5-80.7,115.5
				c0,74.7,26.9,112.1,80.7,112.1c19.9,0,38.3-2.7,55.3-8c17-5.4,33.9-13.7,50.9-25.1v89.2c-16.7,10.7-33.6,18.1-50.7,22.2
				C2430,578.1,2408.5,580.2,2382.5,580.2z"/>
		</g>
		<g>
			<path d="M1714.3,184c14,0,25.7,1,34.9,3.1l-7.8,97.8c-8.4-2.3-18.5-3.4-30.5-3.4c-33,0-58.7,8.5-77.2,25.6
				c-18.4,17.1-27.6,41-27.6,71.8v194.5h-103.4V191.2h78.3l15.3,64.3h5.1c11.8-21.4,27.6-38.7,47.7-51.8
				C1669,190.6,1690.8,184,1714.3,184z"/>
			<path d="M1989.7,580.2c-61,0-108.8-17-143.1-50.9c-34.4-34-51.6-82-51.6-144.2c0-64,15.9-113.5,47.7-148.5
				c31.8-35,75.7-52.5,131.8-52.5c53.6,0,95.3,15.4,125.2,46.1s44.8,73.3,44.8,127.5v50.6h-244.5c1.1,29.6,9.8,52.8,26.1,69.4
				c16.3,16.6,39.1,25,68.5,25c22.8,0,44.4-2.4,64.8-7.2c20.3-4.8,41.6-12.4,63.8-22.9v80.7c-18.1,9.1-37.4,15.9-58,20.3
				C2044.4,578,2019.3,580.2,1989.7,580.2z M1975.1,258.2c-21.9,0-39.1,7-51.6,21c-12.4,14-19.6,33.9-21.4,59.6h145.2
				c-0.5-25.7-7.1-45.6-20-59.6C2014.5,265.2,1997.1,258.2,1975.1,258.2z"/>
			<path d="M2382.5,580.2c-118,0-177-65.3-177-195.8c0-64.9,16.1-114.6,48.2-148.9c32.1-34.3,78.1-51.4,138-51.4
				c43.9,0,83.2,8.7,118,26l-30.5,80.7c-16.3-6.6-31.4-12-45.4-16.2c-14-4.2-28-6.3-42.1-6.3c-53.8,0-80.7,38.5-80.7,115.5
				c0,74.7,26.9,112.1,80.7,112.1c19.9,0,38.3-2.7,55.3-8c17-5.4,33.9-13.7,50.9-25.1v89.2c-16.7,10.7-33.6,18.1-50.7,22.2
				C2430,578.1,2408.5,580.2,2382.5,580.2z"/>
		</g>
		<g>
			<path d="M451.9,577.4l-36-118.9H235.1l-36,118.9H85.9l175-501.8h128.5l175.7,501.8H451.9z M390.8,369.6
				c-33.2-107.8-52-168.7-56.1-182.9c-4.2-14.1-7.2-25.3-9-33.5c-7.5,29.2-28.8,101.3-64.1,216.4H390.8z"/>
			<path d="M830.4,188.1c44.8,0,79.8,17.6,105.1,52.8c25.3,35.2,38,83.5,38,144.8c0,63.1-13.1,112-39.2,146.6
				c-26.1,34.6-61.7,52-106.7,52c-44.5,0-79.5-16.3-104.8-48.9h-7.1l-17.3,42h-79V45.5h103.4v123.7c0,15.7-1.4,40.9-4.1,75.5h4.1
				C747,207,782.9,188.1,830.4,188.1z M797.1,271.5c-25.6,0-44.2,7.9-56,23.8c-11.8,15.8-17.9,42-18.3,78.4v11.3
				c0,41,6,70.4,18.1,88.2c12.1,17.8,31.3,26.7,57.5,26.7c21.3,0,38.2-9.9,50.7-29.6c12.5-19.7,18.8-48.4,18.8-86s-6.3-65.8-19-84.6
				C836.4,280.9,819.1,271.5,797.1,271.5z"/>
		</g>
		<path d="M3053.1,311l-8.1,14.3c-3,5.3-9.3,7.5-15,5.4c-11.7-4.4-22.4-10.7-31.9-18.6c-4.6-3.8-5.8-10.5-2.8-15.7l8.1-14.3
			c-6.8-8-12.2-17.3-15.8-27.4h-16.4c-6,0-11.1-4.3-12.1-10.3c-2-12-2.1-24.6,0-37.1c1-6,6.2-10.4,12.1-10.4h16.4
			c3.6-10.1,8.9-19.4,15.8-27.4l-8.1-14.3c-3-5.2-1.9-11.9,2.8-15.7c9.4-7.9,20.2-14.2,31.9-18.6c5.7-2.1,12,0.1,15,5.4l8.1,14.3
			c10.4-1.9,21-1.9,31.5,0l8.1-14.3c3-5.3,9.3-7.5,15-5.4c11.7,4.4,22.4,10.7,31.9,18.6c4.6,3.8,5.8,10.5,2.8,15.7l-8.1,14.3
			c6.8,8,12.2,17.3,15.8,27.4h16.4c6,0,11.1,4.3,12.1,10.3c2,12,2.1,24.6,0,37.1c-1,6-6.2,10.4-12.1,10.4H3150
			c-3.6,10.1-8.9,19.4-15.8,27.4l8.1,14.3c3,5.2,1.9,11.9-2.8,15.7c-9.4,7.9-20.2,14.2-31.9,18.6c-5.7,2.1-12-0.1-15-5.4l-8.1-14.3
			C3074.3,312.9,3063.6,312.9,3053.1,311z M3042.7,252.2c38.2,29.6,81.8-14.3,52.4-52.8C3056.9,169.7,3013.3,213.7,3042.7,252.2z
			 M2928.3,406.1l33.4,16.8c10,5.8,14.4,18.1,10.4,29.1c-8.8,24.2-26.2,46.4-42.3,65.8c-7.3,8.9-20,11.1-30.1,5.3l-28.9-16.8
			c-15.9,13.7-34.3,24.6-54.5,31.7v33.6c0,11.6-8.2,21.6-19.5,23.6c-24.4,4.2-50,4.4-75.3,0c-11.4-2-19.8-11.9-19.8-23.6V538
			c-20.1-7.2-38.6-18-54.5-31.7l-28.9,16.7c-9.9,5.8-22.7,3.6-30.1-5.3c-16.1-19.4-33-41.6-41.9-65.7c-4-10.9,0.4-23.2,10.4-29.1
			l33-16.8c-3.9-20.9-3.9-42.4,0-63.4l-33-16.9c-10-5.8-14.5-18.1-10.4-29c8.8-24.2,25.8-46.4,41.9-65.8c7.3-8.9,20-11.1,30.1-5.3
			l28.9,16.8c15.9-13.7,34.3-24.6,54.5-31.7v-33.7c0-11.5,8.1-21.5,19.4-23.5c24.4-4.2,50.1-4.4,75.4-0.1
			c11.4,2,19.8,11.9,19.8,23.6v33.6c20.1,7.2,38.6,18,54.5,31.7l28.9-16.8c9.9-5.8,22.7-3.6,30.1,5.3c16.1,19.4,32.9,41.6,41.8,65.8
			c4,10.9,0.1,23.2-9.9,29.1l-33.4,16.8C2932.2,363.6,2932.2,385.1,2928.3,406.1z M2811.6,427.2c58.7-77-28.5-164.9-104.9-105.7
			C2648,398.5,2735.2,486.4,2811.6,427.2z M3053.1,609.9l-8.1,14.3c-3,5.3-9.3,7.5-15,5.4c-11.7-4.4-22.4-10.7-31.9-18.6
			c-4.6-3.8-5.8-10.5-2.8-15.7l8.1-14.3c-6.8-8-12.2-17.3-15.8-27.4h-16.4c-6,0-11.1-4.3-12.1-10.3c-2-12-2.1-24.6,0-37.1
			c1-6,6.2-10.4,12.1-10.4h16.4c3.6-10.1,8.9-19.4,15.8-27.4l-8.1-14.3c-3-5.2-1.9-11.9,2.8-15.7c9.4-7.9,20.2-14.2,31.9-18.6
			c5.7-2.1,12,0.1,15,5.4l8.1,14.3c10.4-1.9,21-1.9,31.5,0l8.1-14.3c3-5.3,9.3-7.5,15-5.4c11.7,4.4,22.4,10.7,31.9,18.6
			c4.6,3.8,5.8,10.5,2.8,15.7l-8.1,14.3c6.8,8,12.2,17.3,15.8,27.4h16.4c6,0,11.1,4.3,12.1,10.3c2,12,2.1,24.6,0,37.1
			c-1,6-6.2,10.4-12.1,10.4H3150c-3.6,10.1-8.9,19.4-15.8,27.4l8.1,14.3c3,5.2,1.9,11.9-2.8,15.7c-9.4,7.9-20.2,14.2-31.9,18.6
			c-5.7,2.1-12-0.1-15-5.4l-8.1-14.3C3074.3,611.8,3063.6,611.8,3053.1,609.9z M3042.7,551c38.2,29.6,81.8-14.3,52.4-52.8
			C3056.9,468.6,3013.3,512.5,3042.7,551L3042.7,551z"/>
		<path d="M1414.8,408.2l33.4,16.8c10,5.8,14.4,18.1,10.4,29.1c-8.8,24.2-26.2,46.4-42.3,65.8c-7.3,8.9-20,11.1-30.1,5.3l-28.9-16.8
			c-15.9,13.7-34.3,24.6-54.5,31.7v33.6c0,11.6-8.2,21.6-19.5,23.6c-24.4,4.2-50,4.4-75.3,0c-11.4-2-19.8-11.9-19.8-23.6v-33.6
			c-20.1-7.2-38.6-18-54.5-31.7l-28.9,16.7c-9.9,5.8-22.7,3.6-30.1-5.3c-16.1-19.4-33-41.6-41.9-65.7c-4-10.9,0.4-23.2,10.4-29.1
			l33-16.8c-3.9-20.9-3.9-42.4,0-63.4l-33-16.9c-10-5.8-14.5-18.1-10.4-29c8.8-24.2,25.8-46.4,41.9-65.8c7.3-8.9,20-11.1,30.1-5.3
			l28.9,16.8c15.9-13.7,34.3-24.6,54.5-31.7v-33.7c0-11.5,8.1-21.5,19.4-23.5c24.4-4.2,50.1-4.4,75.4-0.1
			c11.4,2,19.8,11.9,19.8,23.6v33.6c20.1,7.2,38.6,18,54.5,31.7l28.9-16.8c9.9-5.8,22.7-3.6,30.1,5.3c16.1,19.4,32.9,41.6,41.8,65.8
			c4,10.9,0.1,23.2-9.9,29.1l-33.4,16.8C1418.7,365.7,1418.7,387.2,1414.8,408.2z M1298.1,429.3c58.7-77-28.5-164.9-104.9-105.7
			C1134.5,400.6,1221.7,488.5,1298.1,429.3z"/>
	</g>
</g>
</svg>
