<?xml version="1.0" encoding="utf-8"?>
<!-- Generator: Adobe Illustrator 22.0.1, SVG Export Plug-In . SVG Version: 6.00 Build 0)  -->
<svg version="1.1" id="Capa_1" xmlns="http://www.w3.org/2000/svg" xmlns:xlink="http://www.w3.org/1999/xlink" x="0px" y="0px"
	 viewBox="0 0 441 465" style="enable-background:new 0 0 441 465;" xml:space="preserve">
<path d="M392.3,265.7l33.7,16.8c10.1,5.8,14.5,18.1,10.5,29.1c-8.9,24.2-26.4,46.4-42.6,65.8c-7.4,8.9-20.2,11.1-30.3,5.3
	l-29.1-16.8c-16,13.7-34.6,24.6-54.9,31.7v33.6c0,11.6-8.3,21.6-19.7,23.6c-24.6,4.2-50.4,4.4-75.9,0c-11.5-2-20-11.9-20-23.6v-33.6
	c-20.3-7.2-38.9-18-54.9-31.7L80,382.6c-10,5.8-22.9,3.6-30.3-5.3c-16.2-19.4-33.3-41.6-42.2-65.7c-4-10.9,0.4-23.2,10.5-29.1
	l33.3-16.8c-3.9-20.9-3.9-42.4,0-63.4L18,185.4c-10.1-5.8-14.6-18.1-10.5-29c8.9-24.2,26-46.4,42.2-65.8c7.4-8.9,20.2-11.1,30.3-5.3
	l29.1,16.8c16-13.7,34.6-24.6,54.9-31.7V36.7c0-11.5,8.2-21.5,19.6-23.5c24.6-4.2,50.5-4.4,76-0.1c11.5,2,20,11.9,20,23.6v33.6
	c20.3,7.2,38.9,18,54.9,31.7l29.1-16.8c10-5.8,22.9-3.6,30.3,5.3c16.2,19.4,33.2,41.6,42.1,65.8c4,10.9,0.1,23.2-10,29.1l-33.7,16.8
	C396.2,223.2,396.2,244.7,392.3,265.7z M274.9,286.9c59.2-77-28.7-164.9-105.7-105.7C110,258.1,197.8,346.1,274.9,286.9z"/>
</svg>
