<svg xmlns="http://www.w3.org/2000/svg" viewBox="0 0 62.2 62.2"><defs><style>.\38 69eab0a-a3c0-49e1-be90-47cdcee7fc3a{fill:#12afaf;}.\39 c6dd94f-19b3-4c1f-95cf-aa576f4436c4{fill:#fff;}</style></defs><title>Recurso 21</title><g id="51e9a3c6-d8b8-4cf6-8652-c5e5f018c95d" data-name="Capa 2"><g id="b4db8fd0-85d3-46ea-8687-8fb14c998a4d" data-name="Pagina inicial mobil"><g id="f887c191-c613-4786-b98f-14af1eb09ec6" data-name="Desarrollo de aplicaciones"><circle class="869eab0a-a3c0-49e1-be90-47cdcee7fc3a" cx="31.1" cy="31.1" r="31.1"/><path class="9c6dd94f-19b3-4c1f-95cf-aa576f4436c4" d="M14.1,32.8V29.5a.47.47,0,0,1,0-.4l.2-.2,2.8-.4a11.56,11.56,0,0,1,.6-1.4L16.1,25a.7.7,0,0,1-.1-.4.48.48,0,0,1,.1-.4l1.5-1.6A3.58,3.58,0,0,1,19,21.5h.4l2.1,1.6,1.4-.6a30,30,0,0,1,.4-3,.92.92,0,0,1,.5-.7h3.4a1.39,1.39,0,0,1,.4.4.85.85,0,0,1,.2.5l.4,2.8,1.4.6,2.1-1.6h.7C34.1,23.1,35,24,35,24.4a.7.7,0,0,1-.1.4l-.8,1-.8,1.1.6,1.5,2.7.4.4.2a.84.84,0,0,1,.2.4v3.3a.84.84,0,0,1-.2.4l-.4.2-2.8.4a9.08,9.08,0,0,1-.6,1.4l1.6,2.1a.63.63,0,0,1,.1.4.48.48,0,0,1-.1.4l-1.5,1.6a3.58,3.58,0,0,1-1.4,1.1h-.4l-2.1-1.6-1.4.6c-.1,1.3-.3,2.4-.4,3a.8.8,0,0,1-.5.6H23.8a1.1,1.1,0,0,1-.4-.4.84.84,0,0,1-.2-.4l-.4-2.8-1.4-.6-2.1,1.6h-.7c-1.7-1.6-2.6-2.5-2.6-2.9a.7.7,0,0,1,.1-.4l.7-.9.8-1.1a8.86,8.86,0,0,1-.6-1.5l-2.7-.4-.2-.2A.94.94,0,0,1,14.1,32.8Zm8-4.9a4.24,4.24,0,1,1,.1,0ZM37,23.8c-1.8-.2-2.9-.4-2.9-.6V20.7c0-.2,1.1-.4,2.9-.6a6,6,0,0,1,.7-.9,8.5,8.5,0,0,1-.9-2.5h.1l.6-.4,1.1-.6.5-.3a2.55,2.55,0,0,1,.8.8l.9,1.2h1.1a19.1,19.1,0,0,1,1.7-2h.1l2.2,1.2H46a9.71,9.71,0,0,1-.9,2.5,4.26,4.26,0,0,1,.4.9c1.8.2,2.5.4,2.5.6v2.5c0,.2-.7.4-2.5.6a4.93,4.93,0,0,1-.5.9,10.37,10.37,0,0,1,1,2.5h-.1l-2.2,1.3a2.55,2.55,0,0,1-.8-.8L42,26.4H40.9L40,27.6a2.55,2.55,0,0,1-.8.8L37,27.1h-.1a7.62,7.62,0,0,1,.8-2.5l-.6-.9h0Zm0,18.4c-1.8-.2-2.9-.4-2.9-.6V39.1c0-.2,1.1-.4,2.9-.6a6,6,0,0,1,.7-.9,8.5,8.5,0,0,1-.9-2.5h.1l.6-.4,1.1-.6.5-.3a2.55,2.55,0,0,1,.8.8l.9,1.2h1.1a19.1,19.1,0,0,1,1.7-2h.1L45.9,35H46a9.71,9.71,0,0,1-.9,2.5,4.26,4.26,0,0,1,.4.9c1.8.2,2.5.4,2.5.6v2.5c0,.2-.7.4-2.5.6a4.93,4.93,0,0,1-.5.9,10.37,10.37,0,0,1,1,2.5h-.1l-2.2,1.3a2.55,2.55,0,0,1-.8-.8L42,44.8H40.9L40,46a2.55,2.55,0,0,1-.8.8L37,45.5h-.1a7.62,7.62,0,0,1,.8-2.5l-.6-.9h0ZM39.2,22a2.31,2.31,0,1,0,.7-1.6,2.21,2.21,0,0,0-.7,1.5Zm0,18.4a2.31,2.31,0,1,0,.7-1.6,2.21,2.21,0,0,0-.7,1.5Z"/></g></g></g></svg>